External Loads File
version=1
nRows=47
nColumns=13
Range=5.000000e-03-10 seconds
endheader
time 	forceRightX 	forceRightY 	forceRightZ 	pointRightX 	pointRightY 	pointRightZ 	forceLeftX 	forceLeftY 	forceLeftZ 	pointLeftX 	pointLeftY 	pointLeftZ 		
0.005000 24.328358 96.177840 -0.000000 0.484405 0.395980 -0.189196 23.230192 124.369755 -0.000000 0.171999 0.264301 -0.441695
0.010000 25.089095 97.340569 -0.000000 0.484073 0.396507 -0.189225 17.888490 122.975946 -0.000000 0.172382 0.263642 -0.441767
0.015000 25.766544 98.373509 -0.000000 0.483795 0.396870 -0.189307 13.004132 121.575933 -0.000000 0.172655 0.263117 -0.441775
0.020000 26.208758 99.187758 -0.000000 0.483682 0.397020 -0.189426 8.853429 120.268521 -0.000000 0.172904 0.262545 -0.441795
0.025000 26.188187 99.735993 -0.000000 0.483027 0.397785 -0.189058 5.388727 119.087389 -0.000000 0.172885 0.262317 -0.441618
0.030000 26.005231 99.870496 -0.000000 0.483067 0.398062 -0.189147 2.984778 117.978209 -0.000000 0.172990 0.262107 -0.441665
0.035000 25.592884 99.583892 -0.000000 0.483075 0.398206 -0.189166 1.386066 116.867614 -0.000000 0.172969 0.262028 -0.441648
0.040000 25.008984 98.865712 -0.000000 0.483142 0.398237 -0.189182 0.410613 115.655347 -0.000000 0.172871 0.262084 -0.441647
0.045000 24.256391 97.729365 -0.000000 0.483271 0.398222 -0.189212 -0.139864 114.269234 -0.000000 0.172693 0.262233 -0.441606
0.050000 23.334400 96.197488 -0.000000 0.483400 0.398110 -0.189215 -0.395094 112.684252 -0.000000 0.172462 0.262440 -0.441619
0.055000 22.246150 94.318801 -0.000000 0.483549 0.397971 -0.189231 -0.425164 110.937165 -0.000000 0.172188 0.262760 -0.441648
0.060000 20.986012 92.183075 -0.000000 0.483647 0.397764 -0.189226 -0.267054 109.124958 -0.000000 0.171816 0.263087 -0.441612
0.065000 19.583003 89.907933 -0.000000 0.483750 0.397584 -0.189226 0.086734 107.370266 -0.000000 0.171396 0.263493 -0.441619
0.070000 18.097669 87.630861 -0.000000 0.483782 0.397337 -0.189229 0.661307 105.793680 -0.000000 0.170930 0.263937 -0.441578
0.075000 16.577445 85.501293 -0.000000 0.483577 0.397028 -0.188926 1.455435 104.510817 -0.000000 0.170705 0.264462 -0.442283
0.080000 15.076945 83.657135 -0.000000 0.483500 0.396771 -0.188902 2.455530 103.626104 -0.000000 0.170155 0.264887 -0.442299
0.085000 13.673929 82.215045 -0.000000 0.483317 0.396508 -0.188859 3.663186 103.227608 -0.000000 0.169563 0.265355 -0.442345
0.090000 12.421148 81.273403 -0.000000 0.483054 0.396211 -0.188851 5.071163 103.388634 -0.000000 0.168930 0.265789 -0.442358
0.095000 11.345890 80.895334 -0.000000 0.482676 0.395961 -0.188802 6.663768 104.150778 -0.000000 0.168260 0.266182 -0.442358
0.100000 10.469322 81.089772 -0.000000 0.482225 0.395737 -0.188750 8.435178 105.502593 -0.000000 0.167568 0.266493 -0.442287
0.105000 9.791062 81.814711 -0.000000 0.481715 0.395587 -0.188753 10.351859 107.375983 -0.000000 0.166903 0.266818 -0.442297
0.110000 9.311595 82.992943 -0.000000 0.481145 0.395398 -0.188729 12.321761 109.649325 -0.000000 0.166293 0.267053 -0.442329
0.115000 9.010198 84.535976 -0.000000 0.480545 0.395344 -0.188738 14.156004 112.178981 -0.000000 0.165718 0.267165 -0.442284
0.120000 8.933543 86.352304 -0.000000 0.479899 0.395375 -0.188710 15.744165 114.819922 -0.000000 0.165225 0.267211 -0.442272
0.125000 9.086010 88.378466 -0.000000 0.479186 0.395538 -0.188746 16.938579 117.454846 -0.000000 0.164775 0.267137 -0.442228
0.130000 9.497059 90.585148 -0.000000 0.478409 0.395741 -0.188756 17.660938 119.995800 -0.000000 0.164463 0.266916 -0.442229
0.135000 10.195386 92.979314 -0.000000 0.477512 0.395991 -0.188799 17.892780 122.398748 -0.000000 0.164202 0.266604 -0.442234
0.140000 11.122774 95.601619 -0.000000 0.476670 0.396433 -0.188722 17.554007 124.664387 -0.000000 0.164049 0.266140 -0.442207
0.145000 12.277811 98.492988 -0.000000 0.475770 0.396987 -0.188730 16.694217 126.794557 -0.000000 0.163944 0.265622 -0.442195
0.150000 13.624112 101.683199 -0.000000 0.474808 0.397484 -0.188810 15.378852 128.806501 -0.000000 0.163949 0.265051 -0.442228
0.155000 15.038057 105.180438 -0.000000 0.473829 0.398086 -0.188767 13.584969 130.726129 -0.000000 0.164003 0.264333 -0.442192
0.160000 16.539120 108.922752 -0.000000 0.472739 0.398733 -0.188728 11.477231 132.545104 -0.000000 0.163955 0.263632 -0.442171
0.165000 18.033070 112.794759 -0.000000 0.471761 0.399320 -0.188661 9.125256 134.257050 -0.000000 0.164017 0.262863 -0.442159
0.170000 19.436351 116.610804 -0.000000 0.470834 0.399951 -0.188660 6.675470 135.835959 -0.000000 0.164085 0.262127 -0.442146
0.175000 20.654447 120.149586 -0.000000 0.469977 0.400567 -0.188711 4.310985 137.251767 -0.000000 0.164163 0.261479 -0.442167
0.180000 21.589922 123.198361 -0.000000 0.469255 0.401074 -0.188730 2.228001 138.483966 -0.000000 0.164190 0.260821 -0.442158
0.185000 22.164046 125.585904 -0.000000 0.468632 0.401584 -0.188786 0.592172 139.517983 -0.000000 0.164180 0.260302 -0.442197
0.190000 22.360426 127.197662 -0.000000 0.468104 0.402007 -0.188801 -0.441352 140.352650 -0.000000 0.164128 0.259890 -0.442186
0.195000 22.173728 127.994193 -0.000000 0.467727 0.402359 -0.188803 -0.766274 141.016351 -0.000000 0.163985 0.259569 -0.442197
0.200000 21.577572 128.014834 -0.000000 0.467458 0.402698 -0.188861 -0.356124 141.567009 -0.000000 0.163795 0.259331 -0.442248
0.205000 20.618801 127.357858 -0.000000 0.467263 0.402949 -0.188886 0.841273 142.097182 -0.000000 0.163534 0.259148 -0.442232
0.210000 19.336497 126.185472 -0.000000 0.467154 0.403132 -0.188928 2.815120 142.731657 -0.000000 0.163240 0.259040 -0.442209
0.215000 17.740920 124.701654 -0.000000 0.467063 0.403318 -0.188977 5.453307 143.599788 -0.000000 0.162893 0.258969 -0.442212
0.220000 15.871934 123.118214 -0.000000 0.467010 0.403534 -0.188984 8.592893 144.801250 -0.000000 0.162519 0.258923 -0.442190
0.225000 13.794364 121.641306 -0.000000 0.466964 0.403722 -0.189091 11.990935 146.379194 -0.000000 0.162187 0.258833 -0.442209
0.230000 11.627062 120.448578 -0.000000 0.466869 0.403928 -0.189074 15.371198 148.306622 -0.000000 0.161866 0.258700 -0.442159
0.235000 9.471417 119.671429 -0.000000 0.466760 0.404194 -0.189081 18.411935 150.500794 -0.000000 0.161667 0.258441 -0.442143
